:SAMPLES-PER-SECOND 30
:FULLY-SPECIFIED
:DEGREES
77
root  4.37755 38.0038 0.626803 -176.626 87.1825 -169.741
RightUpLeg  -23.1709 -19.5332 4.50679
RightLeg  20.8767 0.355361 -0.119114
RightFoot  7.54603 1.24347 -7.2091
RightToes  -2.9104e-010 0 -3.6325e-017
Spine  8.01891 -2.94545 4.8383
Spine1  10.9333 -3.2175 1.73327
HEad  -9.63271 7.82131 -7.06356
LeftShoulder1  8.88179 -12.998 -46.965
LeftArm  -10.7242 -5.86643 -28.3503
LeftForeArm  34.8024 -38.6054 -6.7782
LeftHand  -0.244104 0.0205437 5.32207
RightShoulder  4.98853 8.85502 34.4118
RightArm  -11.4061 -13.4845 37.6318
RightForeArm  16.68 8.55883 5.6614
RightHand  -0.47356 -0.0472487 -10.3254
LeftUpLeg  19.7556 9.78842 6.42675
LeftLeg  34.0372 3.03473 2.61903
LeftFoot  -5.33346 0.65692 -12.8998
LeftToes  1.09107e-011 -5.80176e-011 5.60941e-012
78
root  6.12283 37.8865 0.7791 -137.87 86.7267 -130.848
RightUpLeg  -22.8159 -16.9483 6.07583
RightLeg  26.3341 -1.82321 -1.2483
RightFoot  3.44587 1.1776 -8.83419
RightToes  -2.9104e-010 0 -3.6325e-017
Spine  8.64603 -2.96874 7.45892
Spine1  10.811 -2.91893 2.44542
HEad  -10.0879 7.94413 -6.65188
LeftShoulder1  8.93417 -12.8521 -47.6755
LeftArm  -14.7837 -1.84131 -29.8557
LeftForeArm  35.9824 -40.1619 -7.15085
LeftHand  -0.244104 0.0205437 5.32207
RightShoulder  5.03225 8.954 34.4416
RightArm  -11.2713 -13.5041 37.5447
RightForeArm  15.6872 9.45428 5.74739
RightHand  -0.437701 -0.2577 -9.93442
LeftUpLeg  13.6803 8.39593 8.09042
LeftLeg  45.8623 4.92952 5.80494
LeftFoot  7.67319 1.47273 -9.10881
LeftToes  1.09107e-011 -5.80176e-011 5.60941e-012
79
root  7.65365 37.7916 0.931561 -132.588 84.9492 -125.322
RightUpLeg  -21.6276 -16.6613 7.14018
RightLeg  30.1173 -3.41575 -2.37811
RightFoot  -0.959528 0.784167 -8.64871
RightToes  -2.9104e-010 0 -3.6325e-017
Spine  9.31667 -3.27179 9.24578
Spine1  11.5455 -2.93246 3.571
HEad  -11.2968 7.55328 -5.40432
LeftShoulder1  9.09034 -12.9292 -48.2884
LeftArm  -16.6851 1.00615 -31.0038
LeftForeArm  34.1655 -39.7926 -7.15743
LeftHand  -0.244104 0.0205437 5.32207
RightShoulder  5.07976 9.01327 34.628
RightArm  -10.3792 -12.6209 37.5789
RightForeArm  13.7145 10.6715 5.94944
RightHand  -0.497319 -0.0120739 -10.7478
LeftUpLeg  6.39148 5.58338 8.5958
LeftLeg  56.8301 4.61018 8.02825
LeftFoot  14.679 1.20978 -5.52848
LeftToes  1.09107e-011 -5.80176e-011 5.60941e-012
80
root  9.23039 37.975 1.05478 -136.982 83.9066 -129.197
RightUpLeg  -18.7339 -17.4417 7.04117
RightLeg  31.2921 -3.54308 -2.58094
RightFoot  -3.82998 0.494745 -7.92741
RightToes  -2.9104e-010 0 -3.6325e-017
Spine  9.64314 -3.2569 10.4615
Spine1  12.3927 -2.63006 3.78678
HEad  -12.3647 6.54536 -3.89236
LeftShoulder1  9.33613 -13.1854 -48.8386
LeftArm  -15.5505 2.63929 -31.2993
LeftForeArm  31.3675 -36.6589 -6.45532
LeftHand  -0.244104 0.0205437 5.32207
RightShoulder  5.04566 8.85695 34.8615
RightArm  -8.55007 -11.459 37.7926
RightForeArm  11.233 12.308 6.12791
RightHand  -0.681416 0.945594 -12.5742
LeftUpLeg  0.0374852 3.08166 8.03711
LeftLeg  64.2495 3.60905 8.74185
LeftFoot  13.724 0.799765 -3.96747
LeftToes  1.09107e-011 -5.80176e-011 5.60941e-012
81
root  10.8802 38.3489 1.1602 -136.59 84.3715 -128.326
RightUpLeg  -14.8447 -17.2416 6.06744
RightLeg  30.7608 -3.19343 -2.31062
RightFoot  -6.00156 0.315384 -7.62219
RightToes  -2.9104e-010 0 -3.6325e-017
Spine  9.65191 -2.56891 11.1485
Spine1  12.7725 -1.57962 3.00554
HEad  -12.6019 5.43103 -2.75353
LeftShoulder1  9.48133 -13.3602 -49.0859
LeftArm  -12.4659 4.01865 -31.1782
LeftForeArm  29.3416 -31.5054 -5.25015
LeftHand  -0.244104 0.0205437 5.32207
RightShoulder  4.96389 8.6574 34.8586
RightArm  -5.5512 -10.4488 38.224
RightForeArm  8.48391 14.2833 6.17478
RightHand  -0.849006 1.71056 -14.0269
LeftUpLeg  -5.13984 2.41078 6.95135
LeftLeg  67.3679 2.7548 7.99951
LeftFoot  9.4619 0.627332 -3.74467
LeftToes  1.09107e-011 -5.80176e-011 5.60941e-012
82
root  12.5137 38.6918 1.26113 -128.889 85.7478 -120.503
RightUpLeg  -11.0789 -16.4288 4.91387
RightLeg  29.6443 -2.80186 -1.98811
RightFoot  -8.221 0.146153 -7.37076
RightToes  -2.9104e-010 0 -3.6325e-017
Spine  9.40959 -1.61759 11.3557
Spine1  12.7289 -0.298042 2.04953
HEad  -12.105 4.96085 -2.20607
LeftShoulder1  9.42332 -13.3145 -48.9167
LeftArm  -8.81297 5.86912 -30.9908
LeftForeArm  27.3873 -25.63 -4.07586
LeftHand  -0.244104 0.0205437 5.32207
RightShoulder  4.93564 8.65149 34.6497
RightArm  -1.19252 -9.41929 38.7244
RightForeArm  5.54327 16.4869 6.01329
RightHand  -0.849612 1.54985 -14.3274
LeftUpLeg  -9.8293 3.12036 5.80437
LeftLeg  67.0002 2.25286 6.57361
LeftFoot  5.95834 0.497797 -3.49434
LeftToes  1.09107e-011 -5.80176e-011 5.60941e-012
83
root  14.1307 38.9761 1.35203 -113.408 86.9624 -105.138
RightUpLeg  -7.43905 -16.3152 3.69628
RightLeg  28.0173 -1.8724 -1.29667
RightFoot  -10.0104 0.0135087 -6.9938
RightToes  -2.9104e-010 0 -3.6325e-017
Spine  8.88865 -0.897502 11.308
Spine1  12.5728 0.595883 1.1949
HEad  -11.4594 5.29538 -2.19194
LeftShoulder1  9.29898 -13.1894 -48.6315
LeftArm  -6.58722 8.1182 -30.4578
LeftForeArm  25.8807 -19.4369 -3.87462
LeftHand  -0.244104 0.0205437 5.32207
RightShoulder  4.96378 8.76615 34.5012
RightArm  4.25741 -8.14203 39.106
RightForeArm  2.78857 19.1202 5.51687
RightHand  -0.74769 0.90958 -13.8651
LeftUpLeg  -13.9585 4.06004 4.69082
LeftLeg  63.8679 2.2328 5.59625
LeftFoot  2.85567 0.291354 -2.47179
LeftToes  1.09107e-011 -5.80176e-011 5.60941e-012
84
root  15.7313 39.2391 1.42139 -88.011 87.5049 -79.8552
RightUpLeg  -3.63609 -16.0787 2.41138
RightLeg  25.8694 -0.996706 -0.2779
RightFoot  -11.1642 -0.0649993 -6.83381
RightToes  -2.9104e-010 0 -3.6325e-017
Spine  8.19562 -0.453393 11.3101
Spine1  12.5698 1.13381 0.264693
HEad  -11.1263 6.02456 -2.62037
LeftShoulder1  9.26432 -13.1653 -48.5195
LeftArm  -8.49275 10.5764 -29.3956
LeftForeArm  27.9554 -12.9282 -5.19503
LeftHand  -0.244104 0.0205437 5.32207
RightShoulder  4.97328 8.78506 34.5163
RightArm  9.20226 -6.67986 39.3111
RightForeArm  1.17718 22.2418 5.00972
RightHand  -0.668843 0.483457 -13.2915
LeftUpLeg  -17.0195 5.04957 3.89549
LeftLeg  57.9037 2.56889 4.94535
LeftFoot  -0.576079 0.21669 -2.30611
LeftToes  1.09107e-011 -5.80176e-011 5.60941e-012
85
root  17.3013 39.4239 1.47245 -55.912 87.1273 -47.8861
RightUpLeg  0.0344958 -14.4676 1.30454
RightLeg  23.7782 -1.01309 0.650129
RightFoot  -12.4207 -0.146387 -6.67921
RightToes  -2.9104e-010 0 -3.6325e-017
Spine  7.42478 -0.0480884 11.2618
Spine1  12.7202 1.55616 -0.588558
HEad  -11.1923 6.85769 -3.31846
LeftShoulder1  9.30611 -13.2386 -48.5252
LeftArm  -9.8368 13.4949 -28.4868
LeftForeArm  29.5195 -7.42974 -5.58098
LeftHand  -0.244104 0.0205437 5.32207
RightShoulder  4.94649 8.70537 34.5602
RightArm  11.7625 -5.18738 39.4122
RightForeArm  1.39642 25.4571 5.35004
RightHand  -0.633157 0.288297 -13.0048
LeftUpLeg  -18.9647 6.77087 3.57855
LeftLeg  49.1562 2.99442 4.13462
LeftFoot  -2.11658 0.299617 -3.52648
LeftToes  1.09107e-011 -5.80176e-011 5.60941e-012
86
root  18.8435 39.4674 1.50708 -35.6984 85.8545 -28.0033
RightUpLeg  3.10904 -13.0183 0.548524
RightLeg  22.2528 -0.57726 1.35709
RightFoot  -14.047 -0.241386 -6.21185
RightToes  -2.9104e-010 0 -3.6325e-017
Spine  6.51176 0.347099 11.0944
Spine1  12.9166 1.85002 -1.14373
HEad  -11.548 7.76919 -4.05047
LeftShoulder1  9.34469 -13.3065 -48.53
LeftArm  -9.42393 17.1598 -28.0967
LeftForeArm  29.593 -4.34741 -5.25385
LeftHand  -0.244104 0.0205437 5.32207
RightShoulder  4.92437 8.66632 34.5092
RightArm  13.1246 -3.84645 39.5733
RightForeArm  1.79173 28.6025 6.10087
RightHand  -0.622972 0.153488 -13.0948
LeftUpLeg  -20.0303 9.39303 3.47344
LeftLeg  38.3989 3.5134 3.33417
LeftFoot  -1.43978 0.400419 -4.52595
LeftToes  1.09107e-011 -5.80176e-011 5.60941e-012
87
root  20.3664 39.4013 1.51321 -28.1431 84.2129 -20.8945
RightUpLeg  5.69425 -12.1325 0.067626
RightLeg  21.2551 0.456105 1.84671
RightFoot  -15.5135 -0.316554 -5.79185
RightToes  -2.9104e-010 0 -3.6325e-017
Spine  5.58406 0.652788 11.0831
Spine1  13.1727 2.05636 -1.64947
HEad  -12.1193 8.67839 -4.70394
LeftShoulder1  9.34715 -13.3047 -48.548
LeftArm  -9.34848 21.3771 -28.0404
LeftForeArm  29.9482 -3.73885 -5.05706
LeftHand  -0.244104 0.0205437 5.32207
RightShoulder  4.92646 8.69385 34.436
RightArm  13.7158 -2.85276 39.7079
RightForeArm  2.50858 31.6639 6.82589
RightHand  -0.630441 0.159201 -13.2371
LeftUpLeg  -20.2742 12.7647 3.17753
LeftLeg  26.4587 3.64695 2.52335
LeftFoot  -1.02916 0.416464 -4.54644
LeftToes  1.09107e-011 -5.80176e-011 5.60941e-012
88
root  21.8679 39.3012 1.49623 -24.1077 82.4249 -17.0863
RightUpLeg  8.3293 -11.359 -0.36402
RightLeg  20.3639 1.57998 1.96178
RightFoot  -16.7066 -0.377155 -5.62841
RightToes  -2.9104e-010 0 -3.6325e-017
Spine  5.02282 0.912667 11.0535
Spine1  13.6066 2.37938 -2.36482
HEad  -12.8537 9.48113 -5.23204
LeftShoulder1  9.28261 -13.2004 -48.5133
LeftArm  -9.47555 25.6458 -28.32
LeftForeArm  29.9637 -4.76234 -4.95503
LeftHand  -0.244104 0.0205437 5.32207
RightShoulder  4.96463 8.74472 34.5779
RightArm  13.6097 -2.23215 39.6043
RightForeArm  3.63277 34.2823 7.45891
RightHand  -0.648392 0.391039 -13.0893
LeftUpLeg  -19.3333 14.3006 3.63865
LeftLeg  13.7731 5.61502 0.754275
LeftFoot  -1.22551 0.399773 -4.4301
LeftToes  1.09107e-011 -5.80176e-011 5.60941e-012
89
root  23.3904 39.1247 1.46042 -21.904 80.6288 -14.7894
RightUpLeg  11.1324 -10.6505 -0.941532
RightLeg  19.8562 2.67927 1.86122
RightFoot  -18.2384 -0.417275 -4.90981
RightToes  -2.9104e-010 0 -3.6325e-017
Spine  4.80135 1.17698 10.8413
Spine1  14.132 2.78291 -2.93652
HEad  -13.5599 10.1645 -5.49345
LeftShoulder1  9.11413 -12.9885 -48.241
LeftArm  -10.0276 29.5038 -29.0927
LeftForeArm  29.3521 -6.13905 -4.81691
LeftHand  -0.244104 0.0205437 5.32207
RightShoulder  5.05787 8.83265 35.0375
RightArm  13.2946 -1.8655 39.3211
RightForeArm  4.1666 35.6564 7.81266
RightHand  -0.712577 0.995718 -13.0529
LeftUpLeg  -17.0069 8.33166 7.33261
LeftLeg  1.68748 15.8744 -3.39947
LeftFoot  -1.37626 0.426194 -4.80621
LeftToes  1.09107e-011 -5.80176e-011 5.60941e-012
90
root  25.0208 38.7836 1.3824 -22.6151 79.1542 -15.3145
RightUpLeg  13.6743 -10.34 -1.63817
RightLeg  20.5965 3.92698 1.93977
RightFoot  -20.1162 -0.385207 -3.24908
RightToes  -2.9104e-010 0 -3.6325e-017
Spine  4.42586 1.44862 10.9934
Spine1  14.4303 3.08528 -3.10654
HEad  -13.9351 10.5359 -5.40536
LeftShoulder1  8.8752 -12.7315 -47.7126
LeftArm  -10.8534 32.4867 -30.2199
LeftForeArm  28.1731 -6.96837 -4.63365
LeftHand  -0.244104 0.0205437 5.32207
RightShoulder  5.15755 8.93089 35.5073
RightArm  12.5587 -1.90297 39.2619
RightForeArm  4.31774 35.3201 7.71015
RightHand  -0.863892 1.99956 -13.7046
LeftUpLeg  -16.0938 7.11117 8.78485
LeftLeg  -5.41559 21.1805 -6.0176
LeftFoot  -3.22789 0.422827 -5.6874
LeftToes  1.09107e-011 -5.80176e-011 5.60941e-012
